HIERARCHY
ROOT Hips
{
  OFFSET 5.72205e-005 65.662 3.42586
  CHANNELS 6 Xposition Yposition Zposition Zrotation Xrotation Yrotation
  JOINT Chest
  {
    OFFSET 0 8.7983 -4.7612
    CHANNELS 3 Zrotation Xrotation Yrotation
    JOINT Chest2
    {
      OFFSET 0 8.0291 0.4195
      CHANNELS 3 Zrotation Xrotation Yrotation
      JOINT Chest3
      {
        OFFSET 0 9.9351 -2.2114
        CHANNELS 3 Zrotation Xrotation Yrotation
        JOINT Neck
        {
          OFFSET 0 22.3885 -0.4656
          CHANNELS 3 Zrotation Xrotation Yrotation
          JOINT Head
          {
            OFFSET -0.0001 12.643 3.4389
            CHANNELS 3 Zrotation Xrotation Yrotation
            End Site
            {
              OFFSET 0.0001 17.6655 0.5274
            }
          }
        }
        JOINT LeftCollar
        {
          OFFSET 2.2603 21.606 7.4023
          CHANNELS 3 Zrotation Xrotation Yrotation
          JOINT LeftShoulder
          {
            OFFSET 13.5163 -1.1332 -5.0146
            CHANNELS 3 Zrotation Xrotation Yrotation
            JOINT LeftElbow
            {
              OFFSET -0.0995 -28.05 -0.2431
              CHANNELS 3 Zrotation Xrotation Yrotation
              JOINT LeftWrist
              {
                OFFSET 0.0679 -23.3996 -0.1402
                CHANNELS 3 Zrotation Xrotation Yrotation
                JOINT LeftFinger1
                {
                  OFFSET 0.7932 -9.069 2.5189
                  CHANNELS 3 Zrotation Xrotation Yrotation
                  JOINT LeftFinger11
                  {
                    OFFSET -0.8272 -3.3923 0.5977
                    CHANNELS 3 Zrotation Xrotation Yrotation
                    JOINT LeftFinger12
                    {
                      OFFSET -0.5649 -2.3158 0.4082
                      CHANNELS 3 Zrotation Xrotation Yrotation
                      End Site
                      {
                        OFFSET -0.4919 -1.6479 0.2673
                      }
                    }
                  }
                }
                JOINT LeftFinger2
                {
                  OFFSET 0.9159 -9.2044 0.2193
                  CHANNELS 3 Zrotation Xrotation Yrotation
                  JOINT LeftFinger21
                  {
                    OFFSET 0.0117 -4.1944 -0.0248
                    CHANNELS 3 Zrotation Xrotation Yrotation
                    JOINT LeftFinger22
                    {
                      OFFSET 0.0071 -2.3249 -0.0142
                      CHANNELS 3 Zrotation Xrotation Yrotation
                      End Site
                      {
                        OFFSET -0.1475 -2.0882 0.0028
                      }
                    }
                  }
                }
                JOINT LeftFinger3
                {
                  OFFSET 0.6113 -8.7231 -2.0637
                  CHANNELS 3 Zrotation Xrotation Yrotation
                  JOINT LeftFinger31
                  {
                    OFFSET -0.1927 -3.8059 -0.2383
                    CHANNELS 3 Zrotation Xrotation Yrotation
                    JOINT LeftFinger32
                    {
                      OFFSET -0.1091 -2.1688 -0.1362
                      CHANNELS 3 Zrotation Xrotation Yrotation
                      End Site
                      {
                        OFFSET -0.2358 -1.9176 -0.0906
                      }
                    }
                  }
                }
                JOINT LeftFinger4
                {
                  OFFSET -0.6151 -8.0947 -3.5641
                  CHANNELS 3 Zrotation Xrotation Yrotation
                  JOINT LeftFinger41
                  {
                    OFFSET -0.4882 -2.341 -0.6462
                    CHANNELS 3 Zrotation Xrotation Yrotation
                    JOINT LeftFinger42
                    {
                      OFFSET -0.3575 -1.7167 -0.4742
                      CHANNELS 3 Zrotation Xrotation Yrotation
                      End Site
                      {
                        OFFSET -0.4187 -1.5237 -0.3496
                      }
                    }
                  }
                }
                JOINT LeftFinger0
                {
                  OFFSET -1.42 -1.8761 1.4223
                  CHANNELS 3 Zrotation Xrotation Yrotation
                  JOINT LeftFinger01
                  {
                    OFFSET -1.1471 -3.4929 2.6334
                    CHANNELS 3 Zrotation Xrotation Yrotation
                    JOINT LeftFinger02
                    {
                      OFFSET -0.823 -2.3 1.6571
                      CHANNELS 3 Zrotation Xrotation Yrotation
                      End Site
                      {
                        OFFSET -0.5822 -1.6914 1.1582
                      }
                    }
                  }
                }
              }
            }
          }
        }
        JOINT RightCollar
        {
          OFFSET -2.2603 21.606 7.4023
          CHANNELS 3 Zrotation Xrotation Yrotation
          JOINT RightShoulder
          {
            OFFSET -13.5187 -1.1334 -5.0155
            CHANNELS 3 Zrotation Xrotation Yrotation
            JOINT RightElbow
            {
              OFFSET 0.0994 -28.0499 -0.2431
              CHANNELS 3 Zrotation Xrotation Yrotation
              JOINT RightWrist
              {
                OFFSET -0.0679 -23.3996 -0.1402
                CHANNELS 3 Zrotation Xrotation Yrotation
                JOINT RightFinger1
                {
                  OFFSET -0.7932 -9.0691 2.5189
                  CHANNELS 3 Zrotation Xrotation Yrotation
                  JOINT RightFinger11
                  {
                    OFFSET 0.8272 -3.3923 0.5977
                    CHANNELS 3 Zrotation Xrotation Yrotation
                    JOINT RightFinger12
                    {
                      OFFSET 0.565 -2.3158 0.4082
                      CHANNELS 3 Zrotation Xrotation Yrotation
                      End Site
                      {
                        OFFSET 0.4919 -1.6479 0.2673
                      }
                    }
                  }
                }
                JOINT RightFinger2
                {
                  OFFSET -0.916 -9.2044 0.2193
                  CHANNELS 3 Zrotation Xrotation Yrotation
                  JOINT RightFinger21
                  {
                    OFFSET -0.0117 -4.1944 -0.0248
                    CHANNELS 3 Zrotation Xrotation Yrotation
                    JOINT RightFinger22
                    {
                      OFFSET -0.0071 -2.3249 -0.0142
                      CHANNELS 3 Zrotation Xrotation Yrotation
                      End Site
                      {
                        OFFSET 0.1475 -2.0882 0.0028
                      }
                    }
                  }
                }
                JOINT RightFinger3
                {
                  OFFSET -0.6113 -8.7231 -2.0637
                  CHANNELS 3 Zrotation Xrotation Yrotation
                  JOINT RightFinger31
                  {
                    OFFSET 0.1927 -3.8059 -0.2383
                    CHANNELS 3 Zrotation Xrotation Yrotation
                    JOINT RightFinger32
                    {
                      OFFSET 0.1091 -2.1688 -0.1362
                      CHANNELS 3 Zrotation Xrotation Yrotation
                      End Site
                      {
                        OFFSET 0.2358 -1.9176 -0.0906
                      }
                    }
                  }
                }
                JOINT RightFinger4
                {
                  OFFSET 0.6151 -8.0947 -3.564
                  CHANNELS 3 Zrotation Xrotation Yrotation
                  JOINT RightFinger41
                  {
                    OFFSET 0.4882 -2.341 -0.6462
                    CHANNELS 3 Zrotation Xrotation Yrotation
                    JOINT RightFinger42
                    {
                      OFFSET 0.3574 -1.7166 -0.4742
                      CHANNELS 3 Zrotation Xrotation Yrotation
                      End Site
                      {
                        OFFSET 0.4187 -1.5237 -0.3496
                      }
                    }
                  }
                }
                JOINT RightFinger0
                {
                  OFFSET 1.4199 -1.8761 1.4221
                  CHANNELS 3 Zrotation Xrotation Yrotation
                  JOINT RightFinger01
                  {
                    OFFSET 1.1472 -3.4929 2.6336
                    CHANNELS 3 Zrotation Xrotation Yrotation
                    JOINT RightFinger02
                    {
                      OFFSET 0.8229 -2.3 1.6571
                      CHANNELS 3 Zrotation Xrotation Yrotation
                      End Site
                      {
                        OFFSET 0.5822 -1.6914 1.1582
                      }
                    }
                  }
                }
              }
            }
          }
        }
      }
    }
  }
  JOINT RightHip
  {
    OFFSET -9.412 3.9771 -0.7758
    CHANNELS 3 Zrotation Xrotation Yrotation
    JOINT RightKnee
    {
      OFFSET -0.7531 -40.938 0
      CHANNELS 3 Zrotation Xrotation Yrotation
      JOINT RightAnkle
      {
        OFFSET 0 -40.1986 0
        CHANNELS 3 Zrotation Xrotation Yrotation
        JOINT RightToe
        {
          OFFSET 0 -4.4182 9.239
          CHANNELS 3 Zrotation Xrotation Yrotation
          End Site
          {
            OFFSET 0 0 6.1981
          }
        }
      }
    }
  }
  JOINT LeftHip
  {
    OFFSET 9.4119 3.9773 -0.7758
    CHANNELS 3 Zrotation Xrotation Yrotation
    JOINT LeftKnee
    {
      OFFSET 0.7532 -40.9383 0
      CHANNELS 3 Zrotation Xrotation Yrotation
      JOINT LeftAnkle
      {
        OFFSET 0 -40.1986 0
        CHANNELS 3 Zrotation Xrotation Yrotation
        JOINT LeftToe
        {
          OFFSET 0 -4.4182 9.239
          CHANNELS 3 Zrotation Xrotation Yrotation
          End Site
          {
            OFFSET 0 0 6.1981
          }
        }
      }
    }
  }
}
MOTION
Frames:	6
Frame Time:	0.0333333
5.72205e-005 65.662 3.42586 0 0 -0 0 0 -0 0 0 -0 0 0 -0 0 0 -0 0 0 -0 0 0 -12.5014 88.1196 14.2451 10.6914 -0.00160068 -0.00239207 0.000740045 -8.4365e-005 7.00714e-005 -9.52055e-007 9.93923e-017 -1.98785e-016 -1.59028e-015 9.93923e-017 -5.96354e-016 -1.59028e-015 -9.93923e-017 -5.96354e-016 -1.59028e-015 9.93923e-017 -1.98785e-016 -1.59028e-015 -0.0128176 0.00232552 8.52707e-005 9.93923e-017 5.96354e-016 -0 9.93923e-017 -1.98785e-016 -1.59028e-015 -0.0160551 0.00299681 0.000857156 -2.48481e-016 0 3.18055e-015 9.93923e-017 -1.98785e-016 -1.59028e-015 -0.0125865 0.0031206 0.00282719 0 1.98785e-016 -0 9.93923e-017 -1.98785e-016 -1.59028e-015 9.93923e-017 -5.96354e-016 -1.59028e-015 -9.93923e-017 -5.96354e-016 -1.59028e-015 -0.865644 0.16582 7.03859 -88.0329 10.2057 -10.5567 0.0015593 -0.00248883 -0.000788628 7.87605e-005 4.10553e-005 1.24965e-005 -3.97569e-016 -7.95139e-016 3.18055e-015 -1.98785e-016 -3.97569e-016 3.18055e-015 -1.98785e-016 0 3.18055e-015 -3.97569e-016 -7.95139e-016 3.18055e-015 0.0129473 0.00231697 -8.70038e-005 9.93923e-017 -7.95139e-016 1.59028e-015 -3.97569e-016 -7.95139e-016 3.18055e-015 0.0163314 0.00303369 -0.000872333 3.97569e-016 7.95139e-016 -3.18055e-015 -3.97569e-016 -7.95139e-016 3.18055e-015 0.0145763 0.00367772 -0.00326275 9.93923e-017 -3.97569e-016 -0 -3.97569e-016 -7.95139e-016 3.18055e-015 -1.98785e-016 -3.97569e-016 3.18055e-015 -1.98785e-016 0 3.18055e-015 3.42482 1.32465 -0.0626183 0.000117508 0.717283 0.000978199 -3.4257 -2.04197 -0.0604716 6.47761e-025 0 -0 -3.42483 1.34017 0.0627307 -0.000193936 0.682302 -0.0013703 3.42574 -2.02253 0.0595886 -8.45714e-024 0 -7.40531e-025 
1.64326 29.6142 -4.49647 -1.00993e-008 28.9934 -1.08649e-007 -0.285308 1.63211 -0.608352 -0.553591 3.26713 -1.20929 -0.553593 3.26714 -1.2093 -4.3462e-005 -19.0045 -5.54204e-005 1.38179e-007 0.35845 3.84263e-007 -13.4097 -6.38109 -29.2889 41.5512 -16.2179 19.6406 -82.0371 -33.4032 -54.085 57.9352 -16.0573 10.0394 -1.59028e-015 -3.18055e-015 -5.96354e-016 -1.65521e-032 -4.77083e-015 -1.98785e-016 -3.18055e-015 0 -1.19271e-015 -1.59028e-015 -3.18055e-015 -5.96354e-016 -0.0128248 0.00231684 8.23978e-005 1.59028e-015 -1.59028e-015 -9.93923e-016 -1.59028e-015 -3.18055e-015 -5.96354e-016 -0.0160512 0.00298918 0.00085596 -5.51738e-033 1.59028e-015 1.98785e-016 -1.59028e-015 -3.18055e-015 -5.96354e-016 -0.0125715 0.00310291 0.00282614 -1.59028e-015 -3.18055e-015 -5.96354e-016 -1.59028e-015 -3.18055e-015 -5.96354e-016 -1.65521e-032 -4.77083e-015 -1.98785e-016 -3.18055e-015 0 -1.19271e-015 6.82501 -8.19967 24.0189 -40.2981 -20.5 -15.6299 81.9165 -33.755 54.6024 -47.7425 -14.5889 -9.52572 -4.41391e-032 3.18055e-015 7.95139e-016 -2.20695e-032 1.59028e-015 7.95139e-016 0 1.59028e-015 -0 -4.41391e-032 3.18055e-015 7.95139e-016 0.0129472 0.00230432 -8.22849e-005 -3.18055e-015 1.59028e-015 -7.95139e-016 -4.41391e-032 3.18055e-015 7.95139e-016 0.0163194 0.00303164 -0.000867626 3.18055e-015 3.18055e-015 1.59028e-015 -4.41391e-032 3.18055e-015 7.95139e-016 0.0145866 0.00368081 -0.00326498 -0 0 7.95139e-016 -4.41391e-032 3.18055e-015 7.95139e-016 -2.20695e-032 1.59028e-015 7.95139e-016 0 1.59028e-015 -0 -9.38542 -34.7379 -20.7289 -173.807 73.0989 171.149 19.5347 43.076 -27.5572 -5.56597e-015 0 -0 9.19429 -34.5946 20.5231 174.151 73.3042 -171.428 -18.8874 42.0134 27.0024 -1.6602e-006 -1.02223e-006 1.23782e-007 
1.64327 29.6215 -4.17258 1.12521e-007 28.9934 -6.8766e-008 -0.286315 1.76526 -0.605796 -0.554326 3.53339 -1.20361 -0.554327 3.53339 -1.20361 -4.59064e-006 -19.0046 -6.22604e-006 -3.82037e-007 0.43148 -3.15974e-008 -13.4097 -6.38123 -29.2888 41.443 -15.8989 19.6415 -82.0379 -33.4031 -54.0841 57.3222 -16.7054 9.53513 1.25425e-006 -7.11222e-006 2.0635e-006 -2.02342e-006 6.34491e-007 1.2335e-006 1.88138e-006 -5.66225e-007 3.09525e-006 1.25425e-006 -7.11222e-006 2.0635e-006 -0.0128281 0.0023131 8.57195e-005 2.40131e-006 -1.23253e-006 1.41931e-006 1.25425e-006 -7.11222e-006 2.0635e-006 -0.016035 0.00298992 0.000860031 3.2775e-006 -1.74911e-007 8.30178e-007 1.25425e-006 -7.11222e-006 2.0635e-006 -0.0125873 0.00312297 0.00282328 3.60189e-006 -2.04054e-006 2.12853e-006 1.25425e-006 -7.11222e-006 2.0635e-006 -2.02342e-006 6.34491e-007 1.2335e-006 1.88138e-006 -5.66225e-007 3.09525e-006 7.17415 -8.11699 23.8393 -40.2041 -20.1189 -15.6247 81.917 -33.755 54.6019 -47.4494 -15.2388 -9.21358 -3.25424e-006 -2.10174e-006 -1.66402e-006 2.23974e-006 -6.04829e-007 -2.04706e-006 -9.21712e-007 -9.47818e-007 -2.90262e-006 -3.25424e-006 -2.10174e-006 -1.66402e-006 0.0129597 0.00231463 -9.58221e-005 -4.18738e-007 -1.7789e-005 -1.30223e-006 -3.25424e-006 -2.10174e-006 -1.66402e-006 0.0163616 0.0030378 -0.000878836 -6.36111e-015 3.18055e-015 -7.95139e-016 -3.25424e-006 -2.10174e-006 -1.66402e-006 0.0146109 0.00368203 -0.00327653 -5.34423e-006 -2.57348e-006 -3.94717e-006 -3.25424e-006 -2.10174e-006 -1.66402e-006 2.23974e-006 -6.04829e-007 -2.04706e-006 -9.21712e-007 -9.47818e-007 -2.90262e-006 -9.32448 -34.2876 -20.6178 -173.782 73.5223 171.154 19.5163 43.0926 -27.5338 -5.06891e-025 -1.82627e-008 -1.59028e-015 9.13338 -34.1455 20.4107 174.141 73.731 -171.445 -18.8699 42.0306 26.9794 -7.77104e-006 4.06894e-006 3.37653e-006 
1.64327 29.629 -3.84867 4.33013e-008 28.9934 -1.97299e-007 -0.287319 1.89843 -0.603214 -0.555072 3.79975 -1.19788 -0.55507 3.79973 -1.19788 -2.83859e-006 -19.0046 -3.09322e-006 4.25438e-007 0.504504 1.37082e-006 -13.4097 -6.38124 -29.2888 41.3331 -15.5794 19.6424 -82.0378 -33.4032 -54.0844 56.7004 -17.3489 9.02123 -1.59028e-015 7.95139e-015 1.98785e-015 1.59028e-015 7.95139e-015 1.98785e-015 -4.41391e-032 6.36111e-015 3.97569e-016 -1.59028e-015 7.95139e-015 1.98785e-015 -0.0128413 0.00231974 8.71628e-005 -1.10348e-031 1.59028e-014 3.97569e-016 -1.59028e-015 7.95139e-015 1.98785e-015 -0.0160585 0.00299836 0.000852732 1.59028e-015 1.59028e-015 2.38542e-015 -1.59028e-015 7.95139e-015 1.98785e-015 -0.0126118 0.00314733 0.00283424 -3.03129e-006 -2.58524e-005 -6.47759e-007 -1.59028e-015 7.95139e-015 1.98785e-015 1.59028e-015 7.95139e-015 1.98785e-015 -4.41391e-032 6.36111e-015 3.97569e-016 7.52352 -8.03526 23.6593 -40.1101 -19.7377 -15.6202 81.9174 -33.7549 54.6016 -47.1516 -15.8877 -8.89674 0 3.18055e-015 -0 -6.36111e-015 4.77083e-015 -7.95139e-016 -9.54166e-015 3.18055e-015 -7.95139e-016 0 3.18055e-015 -0 0.0129496 0.002316 -9.49389e-005 0 1.59028e-015 -0 0 3.18055e-015 -0 0.0163628 0.00304385 -0.000874423 -3.18055e-015 -1.59028e-015 -7.95139e-016 0 3.18055e-015 -0 0.0145954 0.00368924 -0.00325818 8.82781e-032 3.18055e-015 -1.59028e-015 0 3.18055e-015 -0 -6.36111e-015 4.77083e-015 -7.95139e-016 -9.54166e-015 3.18055e-015 -7.95139e-016 -9.2646 -33.8366 -20.5079 -173.756 73.946 171.159 19.4979 43.1088 -27.5104 1.06953e-005 7.80218e-007 -1.16041e-006 9.07399 -33.6938 20.3 174.129 74.1598 -171.461 -18.8526 42.0476 26.9565 7.95139e-016 3.18055e-015 -3.18055e-015 
1.64327 29.6364 -3.52472 -5.07729e-008 28.9934 5.24273e-008 -0.288323 2.03166 -0.60061 -0.555829 4.06619 -1.1921 -0.555829 4.06618 -1.1921 -2.59705e-005 -19.0045 -3.17481e-005 -2.05474e-007 0.577559 -7.67216e-007 -13.4097 -6.38112 -29.2888 41.2229 -15.2598 19.6439 -82.0374 -33.4033 -54.0851 56.0698 -17.9876 8.4977 -1.59028e-015 0 -3.97569e-016 -1.59028e-015 0 -1.19271e-015 -1.59028e-015 0 3.97569e-016 -1.59028e-015 0 -3.97569e-016 -0.0128364 0.00232115 8.80128e-005 -1.59028e-015 -1.59028e-015 -7.95139e-016 -1.59028e-015 0 -3.97569e-016 -0.0160643 0.00300731 0.00085553 1.59028e-015 1.59028e-015 2.78299e-015 -1.59028e-015 0 -3.97569e-016 -0.0125941 0.00311252 0.00283498 1.01658e-006 6.80049e-006 -6.03888e-007 -1.59028e-015 0 -3.97569e-016 -1.59028e-015 0 -1.19271e-015 -1.59028e-015 0 3.97569e-016 7.87313 -7.9545 23.4786 -40.0144 -19.3559 -15.6156 81.9169 -33.755 54.6025 -46.8488 -16.5354 -8.57521 2.6884e-006 8.19079e-007 2.55276e-006 -1.38771e-006 1.41897e-006 4.92972e-006 -5.98001e-007 1.9883e-005 1.64384e-007 2.6884e-006 8.19079e-007 2.55276e-006 0.0129593 0.00234634 -8.22539e-005 2.68808e-006 5.7147e-007 2.55287e-006 2.6884e-006 8.19079e-007 2.55276e-006 0.0163444 0.00304112 -0.000864988 -6.36111e-015 1.59028e-015 -1.59028e-015 2.6884e-006 8.19079e-007 2.55276e-006 0.0145526 0.00367927 -0.00325037 -3.18055e-015 3.18055e-015 -7.95139e-016 2.6884e-006 8.19079e-007 2.55276e-006 -1.38771e-006 1.41897e-006 4.92972e-006 -5.98001e-007 1.9883e-005 1.64384e-007 -9.20572 -33.385 -20.3992 -173.729 74.3702 171.162 19.4796 43.125 -27.4871 -3.99839e-007 -1.84692e-008 -7.42288e-007 9.01541 -33.2424 20.1903 174.118 74.588 -171.478 -18.8351 42.0644 26.9336 5.56597e-015 -6.36111e-015 -0 
1.64328 29.644 -3.20073 -1.08039e-007 28.9934 -2.5871e-008 -0.289331 2.16496 -0.597998 -0.556613 4.33281 -1.18631 -0.556614 4.33281 -1.18631 -2.79252e-006 -19.0046 -3.87899e-006 -1.60557e-007 0.650598 1.09443e-006 -13.4097 -6.38124 -29.2888 41.1146 -14.9406 19.6465 -82.0379 -33.4032 -54.0845 55.4301 -18.6212 7.96442 -1.18186e-006 7.17458e-007 1.02516e-006 -1.81149e-006 6.65491e-007 -3.13484e-006 -2.019e-006 4.25325e-007 -2.31361e-006 -1.18186e-006 7.17458e-007 1.02516e-006 -0.012817 0.00233408 8.18355e-005 -6.45283e-006 1.71365e-006 -8.80727e-006 -1.18186e-006 7.17458e-007 1.02516e-006 -0.0160394 0.00299509 0.000853229 -3.00395e-006 4.54764e-007 -1.53574e-005 -1.18186e-006 7.17458e-007 1.02516e-006 -0.012588 0.00312564 0.00281742 -1.02369e-006 -1.3322e-005 -8.61617e-006 -1.18186e-006 7.17458e-007 1.02516e-006 -1.81149e-006 6.65491e-007 -3.13484e-006 -2.019e-006 4.25325e-007 -2.31361e-006 8.22302 -7.87501 23.2976 -39.9211 -18.9746 -15.6124 81.9173 -33.755 54.602 -46.5411 -17.1817 -8.24875 3.18055e-015 6.36111e-015 2.38542e-015 3.03461e-006 1.63858e-006 -2.8973e-007 8.82781e-032 -6.36111e-015 7.95139e-016 3.18055e-015 6.36111e-015 2.38542e-015 0.0129617 0.00233115 -7.92828e-005 -8.3502e-007 -1.13913e-005 4.68954e-006 3.18055e-015 6.36111e-015 2.38542e-015 0.0163271 0.00304243 -0.000880327 3.86879e-007 8.19081e-006 4.56754e-006 3.18055e-015 6.36111e-015 2.38542e-015 0.0145326 0.00367612 -0.0032548 -0 0 7.95139e-016 3.18055e-015 6.36111e-015 2.38542e-015 3.03461e-006 1.63858e-006 -2.8973e-007 8.82781e-032 -6.36111e-015 7.95139e-016 -9.14787 -32.9326 -20.2918 -173.701 74.7945 171.164 19.4612 43.1408 -27.4638 7.40397e-006 4.74464e-006 -1.04056e-006 8.95758 -32.7913 20.0817 174.107 75.0165 -171.494 -18.8178 42.0815 26.911 3.3162e-006 -2.02145e-007 -2.34585e-007 
